<svg xmlns="http://www.w3.org/2000/svg" xmlns:xlink="http://www.w3.org/1999/xlink" width="500" zoomAndPan="magnify" viewBox="0 0 375 374.999991" height="500" preserveAspectRatio="xMidYMid meet" version="1.2"><defs><clipPath id="6fb1cb2564"><path d="M 120 120 L 255 120 L 255 255 L 120 255 Z M 120 120 "/></clipPath><clipPath id="af1db795fb"><path d="M 187.5 120 C 150.222656 120 120 150.222656 120 187.5 C 120 224.777344 150.222656 255 187.5 255 C 224.777344 255 255 224.777344 255 187.5 C 255 150.222656 224.777344 120 187.5 120 Z M 187.5 120 "/></clipPath><clipPath id="592dd34dcd"><path d="M 157.039062 153.75 L 217.789062 153.75 L 217.789062 221.25 L 157.039062 221.25 Z M 157.039062 153.75 "/></clipPath></defs><g id="dc48c80fe5"><path style="fill:none;stroke-width:4;stroke-linecap:butt;stroke-linejoin:miter;stroke:#aaaaaa;stroke-opacity:1;stroke-miterlimit:4;" d="M 0.00226184 1.99933 L 167.387708 1.99933 " transform="matrix(0.74832,0,0,0.74832,249.459245,208.581987)"/><path style="fill:none;stroke-width:4;stroke-linecap:butt;stroke-linejoin:miter;stroke:#aaaaaa;stroke-opacity:1;stroke-miterlimit:4;" d="M -0.000006 2.000059 L 167.95313 2.000059 " transform="matrix(0.75,0,0,0.75,0.0000045,208.581987)"/><g clip-rule="nonzero" clip-path="url(#6fb1cb2564)"><g clip-rule="nonzero" clip-path="url(#af1db795fb)"><path style="fill:none;stroke-width:8;stroke-linecap:butt;stroke-linejoin:miter;stroke:#aaaaaa;stroke-opacity:1;stroke-miterlimit:4;" d="M 90.00001 0.0000105067 C 40.296882 0.0000105067 0.00000450667 40.296888 0.00000450667 90.000016 C 0.00000450667 139.703145 40.296882 180.000022 90.00001 180.000022 C 139.703139 180.000022 180.000016 139.703145 180.000016 90.000016 C 180.000016 40.296888 139.703139 0.0000105067 90.00001 0.0000105067 Z M 90.00001 0.0000105067 " transform="matrix(0.75,0,0,0.75,119.999997,119.999992)"/></g></g><g clip-rule="nonzero" clip-path="url(#592dd34dcd)"><path style=" stroke:none;fill-rule:nonzero;fill:#aaaaaa;fill-opacity:1;" d="M 194.429688 191.488281 C 201.660156 188.609375 206.785156 181.550781 206.785156 173.308594 C 206.785156 162.519531 198.011719 153.746094 187.226562 153.746094 C 176.441406 153.746094 167.664062 162.519531 167.664062 173.308594 C 167.664062 181.601562 172.855469 188.699219 180.15625 191.539062 C 166.941406 194.8125 157.109375 206.808594 157.109375 221.070312 L 159.324219 221.070312 C 159.324219 205.519531 171.925781 192.867188 187.410156 192.867188 C 202.894531 192.867188 215.496094 205.519531 215.496094 221.070312 L 217.710938 221.070312 C 217.710938 206.726562 207.765625 194.675781 194.429688 191.488281 Z M 187.226562 190.652344 C 177.660156 190.652344 169.878906 182.871094 169.878906 173.308594 C 169.878906 163.742188 177.660156 155.960938 187.226562 155.960938 C 196.792969 155.960938 204.574219 163.742188 204.574219 173.308594 C 204.574219 182.871094 196.792969 190.652344 187.226562 190.652344 Z M 187.226562 190.652344 "/></g></g></svg>